<svg xmlns="http://www.w3.org/2000/svg" xmlns:xlink="http://www.w3.org/1999/xlink" width="500" zoomAndPan="magnify" viewBox="0 0 375 374.999991" height="500" preserveAspectRatio="xMidYMid meet" version="1.0"><defs><clipPath id="09bf2ada50"><path d="M 24 0 L 351 0 C 357.363281 0 363.46875 2.527344 367.96875 7.03125 C 372.472656 11.53125 375 17.636719 375 24 L 375 351 C 375 357.363281 372.472656 363.46875 367.96875 367.96875 C 363.46875 372.472656 357.363281 375 351 375 L 24 375 C 17.636719 375 11.53125 372.472656 7.03125 367.96875 C 2.527344 363.46875 0 357.363281 0 351 L 0 24 C 0 17.636719 2.527344 11.53125 7.03125 7.03125 C 11.53125 2.527344 17.636719 0 24 0 Z M 24 0 " clip-rule="nonzero"/></clipPath><clipPath id="9f296ba6a9"><path d="M 37.5 37.5 L 150 37.5 L 150 150 L 37.5 150 Z M 37.5 37.5 " clip-rule="nonzero"/></clipPath><clipPath id="f04f845fc7"><path d="M 93.75 37.5 C 62.683594 37.5 37.5 62.683594 37.5 93.75 C 37.5 124.816406 62.683594 150 93.75 150 C 124.816406 150 150 124.816406 150 93.75 C 150 62.683594 124.816406 37.5 93.75 37.5 Z M 93.75 37.5 " clip-rule="nonzero"/></clipPath><clipPath id="8053fed875"><path d="M 37.5 225 L 150 225 L 150 337.5 L 37.5 337.5 Z M 37.5 225 " clip-rule="nonzero"/></clipPath><clipPath id="5e1985a187"><path d="M 54.75 225 L 132.75 225 C 137.324219 225 141.710938 226.816406 144.949219 230.050781 C 148.183594 233.289062 150 237.675781 150 242.25 L 150 320.25 C 150 324.824219 148.183594 329.210938 144.949219 332.449219 C 141.710938 335.683594 137.324219 337.5 132.75 337.5 L 54.75 337.5 C 50.175781 337.5 45.789062 335.683594 42.550781 332.449219 C 39.316406 329.210938 37.5 324.824219 37.5 320.25 L 37.5 242.25 C 37.5 237.675781 39.316406 233.289062 42.550781 230.050781 C 45.789062 226.816406 50.175781 225 54.75 225 Z M 54.75 225 " clip-rule="nonzero"/></clipPath><clipPath id="8e5246b579"><path d="M 205.386719 125 L 330.433594 125 L 330.433594 250 L 205.386719 250 Z M 205.386719 125 " clip-rule="nonzero"/></clipPath><clipPath id="d72f8fcc98"><path d="M 280.109375 130.109375 L 325.300781 175.300781 C 328.539062 178.539062 330.355469 182.925781 330.355469 187.5 C 330.355469 192.074219 328.539062 196.460938 325.300781 199.699219 L 280.109375 244.890625 C 276.871094 248.128906 272.484375 249.945312 267.910156 249.945312 C 263.335938 249.945312 258.949219 248.128906 255.710938 244.890625 L 210.519531 199.699219 C 207.28125 196.460938 205.464844 192.074219 205.464844 187.5 C 205.464844 182.925781 207.28125 178.539062 210.519531 175.300781 L 255.710938 130.109375 C 258.949219 126.871094 263.335938 125.054688 267.910156 125.054688 C 272.484375 125.054688 276.871094 126.871094 280.109375 130.109375 Z M 280.109375 130.109375 " clip-rule="nonzero"/></clipPath><clipPath id="488557364a"><path d="M 205 125 L 330.96875 125 L 330.96875 250 L 205 250 Z M 205 125 " clip-rule="nonzero"/></clipPath><clipPath id="65e9907e05"><path d="M 280.101562 130.105469 L 325.296875 175.300781 C 328.53125 178.535156 330.347656 182.921875 330.347656 187.496094 C 330.347656 192.070312 328.53125 196.457031 325.296875 199.691406 L 280.101562 244.886719 C 276.867188 248.121094 272.480469 249.9375 267.90625 249.9375 C 263.332031 249.9375 258.945312 248.121094 255.710938 244.886719 L 210.515625 199.691406 C 207.28125 196.457031 205.464844 192.070312 205.464844 187.496094 C 205.464844 182.921875 207.28125 178.535156 210.515625 175.300781 L 255.710938 130.105469 C 258.945312 126.871094 263.332031 125.054688 267.90625 125.054688 C 272.480469 125.054688 276.867188 126.871094 280.101562 130.105469 Z M 280.101562 130.105469 " clip-rule="nonzero"/></clipPath></defs><rect x="-37.5" width="450" fill="#ffffff" y="-37.499999" height="449.999989" fill-opacity="1"/><rect x="-37.5" width="450" fill="#ffffff" y="-37.499999" height="449.999989" fill-opacity="1"/><g clip-path="url(#09bf2ada50)"><rect x="-37.5" width="450" fill="#ffffff" y="-37.499999" height="449.999989" fill-opacity="1"/><path stroke-linecap="butt" transform="matrix(0.75, 0, 0, 0.75, 0.0000045, 0.000000000000021316)" fill="none" stroke-linejoin="miter" d="M 31.999998 -0.000000000000028422 L 468.000055 -0.000000000000028422 C 476.484431 -0.000000000000028422 484.625057 3.369792 490.625058 9.375001 C 496.630267 15.375002 500.000059 23.515628 500.000059 32.000004 L 500.000059 468.000061 C 500.000059 476.484437 496.630267 484.625063 490.625058 490.625064 C 484.625057 496.630273 476.484431 500.000065 468.000055 500.000065 L 31.999998 500.000065 C 23.515622 500.000065 15.374996 496.630273 9.374995 490.625064 C 3.369786 484.625063 -0.000006 476.484437 -0.000006 468.000061 L -0.000006 32.000004 C -0.000006 23.515628 3.369786 15.375002 9.374995 9.375001 C 15.374996 3.369792 23.515622 -0.000000000000028422 31.999998 -0.000000000000028422 Z M 31.999998 -0.000000000000028422 " stroke="#000000" stroke-width="32" stroke-opacity="1" stroke-miterlimit="4"/></g><g clip-path="url(#9f296ba6a9)"><g clip-path="url(#f04f845fc7)"><path fill="#ff5757" d="M 37.5 37.5 L 150 37.5 L 150 150 L 37.5 150 Z M 37.5 37.5 " fill-opacity="1" fill-rule="nonzero"/><path stroke-linecap="butt" transform="matrix(0.75, 0, 0, 0.75, 37.500002, 37.499998)" fill="none" stroke-linejoin="miter" d="M 75.000002 0.00000328333 C 33.578124 0.00000328333 -0.00000271667 33.57813 -0.00000271667 75.000008 C -0.00000271667 116.421886 33.578124 150.000013 75.000002 150.000013 C 116.42188 150.000013 150.000007 116.421886 150.000007 75.000008 C 150.000007 33.57813 116.42188 0.00000328333 75.000002 0.00000328333 Z M 75.000002 0.00000328333 " stroke="#ff3131" stroke-width="32" stroke-opacity="1" stroke-miterlimit="4"/></g></g><g clip-path="url(#8053fed875)"><g clip-path="url(#5e1985a187)"><path fill="#5271ff" d="M 37.5 225 L 150 225 L 150 337.5 L 37.5 337.5 Z M 37.5 225 " fill-opacity="1" fill-rule="nonzero"/><path stroke-linecap="butt" transform="matrix(0.75, 0, 0, 0.75, 37.500002, 224.999985)" fill="none" stroke-linejoin="miter" d="M 22.999999 0.0000197 L 127.000006 0.0000197 C 133.098964 0.0000197 138.947923 2.421895 143.265632 6.734395 C 147.578132 11.052104 150.000007 16.901062 150.000007 23.000021 L 150.000007 127.000028 C 150.000007 133.098987 147.578132 138.947945 143.265632 143.265654 C 138.947923 147.578154 133.098964 150.00003 127.000006 150.00003 L 22.999999 150.00003 C 16.90104 150.00003 11.052081 147.578154 6.734373 143.265654 C 2.421872 138.947945 -0.00000271667 133.098987 -0.00000271667 127.000028 L -0.00000271667 23.000021 C -0.00000271667 16.901062 2.421872 11.052104 6.734373 6.734395 C 11.052081 2.421895 16.90104 0.0000197 22.999999 0.0000197 Z M 22.999999 0.0000197 " stroke="#004aad" stroke-width="32" stroke-opacity="1" stroke-miterlimit="4"/></g></g><path stroke-linecap="butt" transform="matrix(0.75, 0, 0, 0.75, 149.999995, 87.749994)" fill="none" stroke-linejoin="miter" d="M 44.00001 8.000008 L 133.213558 8.000008 C 146.468767 8.000008 157.213559 18.744801 157.213559 32.00001 L 157.213559 83.000013 " stroke="#000000" stroke-width="16" stroke-opacity="1" stroke-miterlimit="4"/><path stroke-linecap="round" transform="matrix(0.75, 0, 0, 0.75, 149.999995, 87.749994)" fill-opacity="1" fill="#000000" fill-rule="nonzero" stroke-linejoin="round" d="M 40.00001 -15.999993 L 8.000008 8.000008 L 40.00001 32.00001 Z M 40.00001 -15.999993 " stroke="#000000" stroke-width="16" stroke-opacity="1" stroke-miterlimit="4"/><path stroke-linecap="butt" transform="matrix(0.75, 0, 0, 0.75, 87.749999, 182.999988)" fill="none" stroke-linejoin="miter" d="M 8.000002 56.00002 L 8.000002 32.000018 C 8.000002 18.744809 18.744795 8.000017 32.000004 8.000017 L 109.000009 8.000017 C 122.255218 8.000017 133.00001 18.744809 133.00001 32.000018 L 133.00001 149.468776 C 133.00001 162.718777 143.744803 173.468777 157.000012 173.468777 L 220.109391 173.468777 C 231.213559 173.468777 240.213559 164.463568 240.213559 153.364609 L 240.213559 133.260441 " stroke="#000000" stroke-width="16" stroke-opacity="1" stroke-miterlimit="4"/><path stroke-linecap="round" transform="matrix(0.75, 0, 0, 0.75, 87.749999, 182.999988)" fill-opacity="1" fill="#000000" fill-rule="nonzero" stroke-linejoin="round" d="M 216.213558 129.260441 L 240.213559 97.260439 L 264.213561 129.260441 Z M 216.213558 129.260441 " stroke="#000000" stroke-width="16" stroke-opacity="1" stroke-miterlimit="4"/><g clip-path="url(#8e5246b579)"><g clip-path="url(#d72f8fcc98)"><path fill="#ffbd59" d="M 198.320312 117.910156 L 337.5 117.910156 L 337.5 257.089844 L 198.320312 257.089844 Z M 198.320312 117.910156 " fill-opacity="1" fill-rule="nonzero"/></g></g><g clip-path="url(#488557364a)"><g clip-path="url(#65e9907e05)"><path stroke-linecap="butt" transform="matrix(0.75, 0, 0, 0.75, 198.320147, 117.91007)" fill="none" stroke-linejoin="miter" d="M 109.041895 16.260533 L 169.302316 76.520954 C 173.614816 80.833454 176.036691 86.682413 176.036691 92.781371 C 176.036691 98.88033 173.614816 104.729289 169.302316 109.041789 L 109.041895 169.30221 C 104.729395 173.61471 98.880436 176.036585 92.781477 176.036585 C 86.682518 176.036585 80.83356 173.61471 76.521059 169.30221 L 16.260639 109.041789 C 11.948139 104.729289 9.526263 98.88033 9.526263 92.781371 C 9.526263 86.682413 11.948139 80.833454 16.260639 76.520954 L 76.521059 16.260533 C 80.83356 11.948033 86.682518 9.526157 92.781477 9.526157 C 98.880436 9.526157 104.729395 11.948033 109.041895 16.260533 Z M 109.041895 16.260533 " stroke="#ff914d" stroke-width="32" stroke-opacity="1" stroke-miterlimit="4"/></g></g></svg>